<mxfile host="Electron" modified="2024-05-15T22:06:45.456Z" agent="Mozilla/5.0 (Windows NT 10.0; Win64; x64) AppleWebKit/537.36 (KHTML, like Gecko) draw.io/24.2.5 Chrome/120.0.6099.109 Electron/28.1.0 Safari/537.36" etag="EoyK_XVZn1zOusblMtqq" version="24.2.5" type="device">
  <diagram name="페이지-1" id="SPNMAP4AuXIAD45wFi82">
    <mxGraphModel dx="1493" dy="821" grid="1" gridSize="10" guides="1" tooltips="1" connect="1" arrows="1" fold="1" page="1" pageScale="1" pageWidth="827" pageHeight="1169" math="0" shadow="0">
      <root>
        <mxCell id="0" />
        <mxCell id="1" parent="0" />
        <mxCell id="h3oTlgUYp9sYktSaM2yr-4" value="" style="edgeStyle=orthogonalEdgeStyle;rounded=0;orthogonalLoop=1;jettySize=auto;html=1;" edge="1" parent="1" source="h3oTlgUYp9sYktSaM2yr-2" target="h3oTlgUYp9sYktSaM2yr-3">
          <mxGeometry relative="1" as="geometry" />
        </mxCell>
        <mxCell id="h3oTlgUYp9sYktSaM2yr-2" value="start" style="rounded=1;whiteSpace=wrap;html=1;" vertex="1" parent="1">
          <mxGeometry x="340" y="90" width="120" height="60" as="geometry" />
        </mxCell>
        <mxCell id="h3oTlgUYp9sYktSaM2yr-5" style="edgeStyle=orthogonalEdgeStyle;rounded=0;orthogonalLoop=1;jettySize=auto;html=1;entryX=0;entryY=0.139;entryDx=0;entryDy=0;entryPerimeter=0;" edge="1" parent="1" source="h3oTlgUYp9sYktSaM2yr-3" target="h3oTlgUYp9sYktSaM2yr-45">
          <mxGeometry relative="1" as="geometry">
            <mxPoint x="721" y="220" as="targetPoint" />
          </mxGeometry>
        </mxCell>
        <mxCell id="h3oTlgUYp9sYktSaM2yr-10" value="" style="edgeStyle=orthogonalEdgeStyle;rounded=0;orthogonalLoop=1;jettySize=auto;html=1;" edge="1" parent="1" source="h3oTlgUYp9sYktSaM2yr-3" target="h3oTlgUYp9sYktSaM2yr-9">
          <mxGeometry relative="1" as="geometry" />
        </mxCell>
        <mxCell id="h3oTlgUYp9sYktSaM2yr-46" value="yes" style="edgeLabel;html=1;align=center;verticalAlign=middle;resizable=0;points=[];" vertex="1" connectable="0" parent="h3oTlgUYp9sYktSaM2yr-10">
          <mxGeometry x="-0.66" y="-1" relative="1" as="geometry">
            <mxPoint as="offset" />
          </mxGeometry>
        </mxCell>
        <mxCell id="h3oTlgUYp9sYktSaM2yr-3" value="pathname is directory?" style="rhombus;whiteSpace=wrap;html=1;" vertex="1" parent="1">
          <mxGeometry x="340" y="180" width="120" height="80" as="geometry" />
        </mxCell>
        <mxCell id="h3oTlgUYp9sYktSaM2yr-12" value="" style="edgeStyle=orthogonalEdgeStyle;rounded=0;orthogonalLoop=1;jettySize=auto;html=1;" edge="1" parent="1" source="h3oTlgUYp9sYktSaM2yr-9" target="h3oTlgUYp9sYktSaM2yr-11">
          <mxGeometry relative="1" as="geometry" />
        </mxCell>
        <mxCell id="h3oTlgUYp9sYktSaM2yr-9" value="read all subfiles in directory" style="rounded=0;whiteSpace=wrap;html=1;" vertex="1" parent="1">
          <mxGeometry x="340" y="290" width="120" height="60" as="geometry" />
        </mxCell>
        <mxCell id="h3oTlgUYp9sYktSaM2yr-11" value="sort by ascii order" style="rounded=0;whiteSpace=wrap;html=1;" vertex="1" parent="1">
          <mxGeometry x="340" y="390" width="120" height="60" as="geometry" />
        </mxCell>
        <mxCell id="h3oTlgUYp9sYktSaM2yr-23" value="" style="edgeStyle=orthogonalEdgeStyle;rounded=0;orthogonalLoop=1;jettySize=auto;html=1;entryX=0.5;entryY=0;entryDx=0;entryDy=0;exitX=0.5;exitY=1;exitDx=0;exitDy=0;" edge="1" parent="1" source="h3oTlgUYp9sYktSaM2yr-11" target="h3oTlgUYp9sYktSaM2yr-22">
          <mxGeometry relative="1" as="geometry">
            <mxPoint x="460" y="519.9999999999998" as="sourcePoint" />
            <Array as="points">
              <mxPoint x="400" y="540" />
              <mxPoint x="400" y="540" />
            </Array>
          </mxGeometry>
        </mxCell>
        <mxCell id="h3oTlgUYp9sYktSaM2yr-42" value="yes" style="edgeLabel;html=1;align=center;verticalAlign=middle;resizable=0;points=[];" vertex="1" connectable="0" parent="h3oTlgUYp9sYktSaM2yr-23">
          <mxGeometry x="-0.4667" y="3" relative="1" as="geometry">
            <mxPoint y="1" as="offset" />
          </mxGeometry>
        </mxCell>
        <mxCell id="h3oTlgUYp9sYktSaM2yr-25" style="edgeStyle=orthogonalEdgeStyle;rounded=0;orthogonalLoop=1;jettySize=auto;html=1;entryX=1;entryY=0.5;entryDx=0;entryDy=0;" edge="1" parent="1" source="h3oTlgUYp9sYktSaM2yr-15" target="h3oTlgUYp9sYktSaM2yr-22">
          <mxGeometry relative="1" as="geometry">
            <Array as="points">
              <mxPoint x="310" y="660" />
              <mxPoint x="310" y="540" />
            </Array>
          </mxGeometry>
        </mxCell>
        <mxCell id="h3oTlgUYp9sYktSaM2yr-26" value="yes" style="edgeLabel;html=1;align=center;verticalAlign=middle;resizable=0;points=[];" vertex="1" connectable="0" parent="h3oTlgUYp9sYktSaM2yr-25">
          <mxGeometry x="-0.83" y="1" relative="1" as="geometry">
            <mxPoint x="6" y="-11" as="offset" />
          </mxGeometry>
        </mxCell>
        <mxCell id="h3oTlgUYp9sYktSaM2yr-28" value="" style="edgeStyle=orthogonalEdgeStyle;rounded=0;orthogonalLoop=1;jettySize=auto;html=1;" edge="1" parent="1" source="h3oTlgUYp9sYktSaM2yr-15" target="h3oTlgUYp9sYktSaM2yr-27">
          <mxGeometry relative="1" as="geometry" />
        </mxCell>
        <mxCell id="h3oTlgUYp9sYktSaM2yr-31" value="no" style="edgeLabel;html=1;align=center;verticalAlign=middle;resizable=0;points=[];" vertex="1" connectable="0" parent="h3oTlgUYp9sYktSaM2yr-28">
          <mxGeometry x="-0.325" relative="1" as="geometry">
            <mxPoint as="offset" />
          </mxGeometry>
        </mxCell>
        <mxCell id="h3oTlgUYp9sYktSaM2yr-15" value="a option ON &amp;amp;&amp;amp;&lt;div&gt;&lt;span style=&quot;background-color: initial;&quot;&gt;file name&lt;/span&gt;&lt;div&gt;&lt;div&gt;starts with &#39;.&#39;?&lt;/div&gt;&lt;/div&gt;&lt;/div&gt;" style="rhombus;whiteSpace=wrap;html=1;" vertex="1" parent="1">
          <mxGeometry x="340" y="620" width="120" height="80" as="geometry" />
        </mxCell>
        <mxCell id="h3oTlgUYp9sYktSaM2yr-24" value="" style="edgeStyle=orthogonalEdgeStyle;rounded=0;orthogonalLoop=1;jettySize=auto;html=1;" edge="1" parent="1" source="h3oTlgUYp9sYktSaM2yr-22" target="h3oTlgUYp9sYktSaM2yr-15">
          <mxGeometry relative="1" as="geometry" />
        </mxCell>
        <mxCell id="h3oTlgUYp9sYktSaM2yr-22" value="subfiles" style="rhombus;whiteSpace=wrap;html=1;" vertex="1" parent="1">
          <mxGeometry x="340" y="500" width="120" height="80" as="geometry" />
        </mxCell>
        <mxCell id="h3oTlgUYp9sYktSaM2yr-29" style="edgeStyle=orthogonalEdgeStyle;rounded=0;orthogonalLoop=1;jettySize=auto;html=1;entryX=0;entryY=0.5;entryDx=0;entryDy=0;" edge="1" parent="1" source="h3oTlgUYp9sYktSaM2yr-27" target="h3oTlgUYp9sYktSaM2yr-22">
          <mxGeometry relative="1" as="geometry">
            <Array as="points">
              <mxPoint x="310" y="770" />
              <mxPoint x="310" y="540" />
            </Array>
          </mxGeometry>
        </mxCell>
        <mxCell id="h3oTlgUYp9sYktSaM2yr-27" value="write detailed info&lt;div&gt;of subfile&lt;/div&gt;&lt;div&gt;to result_buf&lt;/div&gt;" style="shape=parallelogram;perimeter=parallelogramPerimeter;whiteSpace=wrap;html=1;fixedSize=1;" vertex="1" parent="1">
          <mxGeometry x="340" y="740" width="120" height="60" as="geometry" />
        </mxCell>
        <mxCell id="h3oTlgUYp9sYktSaM2yr-45" value="end" style="rounded=1;whiteSpace=wrap;html=1;" vertex="1" parent="1">
          <mxGeometry x="530" y="140" width="120" height="570" as="geometry" />
        </mxCell>
        <mxCell id="h3oTlgUYp9sYktSaM2yr-47" value="no" style="text;html=1;align=center;verticalAlign=middle;resizable=0;points=[];autosize=1;strokeColor=none;fillColor=none;" vertex="1" parent="1">
          <mxGeometry x="460" y="198" width="40" height="30" as="geometry" />
        </mxCell>
        <mxCell id="h3oTlgUYp9sYktSaM2yr-49" style="edgeStyle=orthogonalEdgeStyle;rounded=0;orthogonalLoop=1;jettySize=auto;html=1;" edge="1" parent="1" source="h3oTlgUYp9sYktSaM2yr-22">
          <mxGeometry relative="1" as="geometry">
            <mxPoint x="530" y="540" as="targetPoint" />
            <Array as="points">
              <mxPoint x="528" y="540" />
            </Array>
          </mxGeometry>
        </mxCell>
      </root>
    </mxGraphModel>
  </diagram>
</mxfile>
